# xmcd CD database file
#
# Track frame offsets:
#	150
#	16661
#	33775
#	52295
#	55806
#	77434
#	100152
#	118787
#	126733
#	145169
#	161552
#	180117
#	195549
#	200327
#	222002
#	240002
#	258249
#	277899
#	294324
#
# Disc length: 4175 seconds
#
# Revision: 1
# Processed by: cddbd v1.5.1PL2 Copyright (c) Steve Scherf et al.
# Submitted via: jetAudio 5
#
DISCID=fa104d13
DTITLE=F.I.R. - 无限
DYEAR=1900
DGENRE=
TTITLE0=曲目 1
TTITLE1=曲目 2
TTITLE2=曲目 3
TTITLE3=曲目 4
TTITLE4=曲目 5
TTITLE5=曲目 6
TTITLE6=曲目 7
TTITLE7=曲目 8
TTITLE8=曲目 9
TTITLE9=曲目 10
TTITLE10=曲目 11
TTITLE11=曲目 12
TTITLE12=曲目 13
TTITLE13=曲目 14
TTITLE14=曲目 15
TTITLE15=曲目 16
TTITLE16=曲目 17
TTITLE17=曲目 18
TTITLE18=曲目 19
EXTD=
EXTT0=
EXTT1=
EXTT2=
EXTT3=
EXTT4=
EXTT5=
EXTT6=
EXTT7=
EXTT8=
EXTT9=
EXTT10=
EXTT11=
EXTT12=
EXTT13=
EXTT14=
EXTT15=
EXTT16=
EXTT17=
EXTT18=
PLAYORDER=
